<svg width="147" height="23" viewBox="0 0 147 23" fill="none" xmlns="http://www.w3.org/2000/svg">
<path d="M9.93918 3.28867C10.3133 5.6813 11.4478 7.82231 13.0882 9.45673C14.7281 11.0908 16.8736 12.2179 19.2696 12.5831C19.3872 12.6009 19.4681 12.7104 19.4503 12.8276C19.4358 12.9241 19.3594 12.9958 19.2677 13.0087C16.8721 13.3743 14.727 14.5018 13.0874 16.1351C11.4467 17.7695 10.3118 19.9113 9.93807 22.3046C9.91988 22.4215 9.8104 22.5021 9.69313 22.4839C9.59738 22.469 9.52649 22.3929 9.51388 22.302C9.13941 19.9094 8.00489 17.7684 6.3649 16.1347C4.72491 14.501 2.57945 13.3739 0.18311 13.0084C0.0654645 12.9909 -0.0150689 12.8811 0.00237382 12.7638C0.0168476 12.6673 0.0929271 12.5957 0.184966 12.5827C2.58056 12.2171 4.72528 11.09 6.36453 9.45636C8.00563 7.82156 9.14052 5.67908 9.51424 3.28534C9.53243 3.16843 9.64191 3.08827 9.75882 3.10645C9.85457 3.1213 9.92545 3.19738 9.93844 3.28831L9.93918 3.28867Z" fill="#F99053"/>
<path d="M29.0354 21.0843C30.8309 21.0843 32.279 20.505 33.2926 19.3757V19.8099C33.2926 20.4471 33.6399 20.7945 34.2771 20.7945H36.0437C36.6809 20.7945 37.0283 20.4467 37.0283 19.8099V7.8783C37.0283 7.24109 36.6809 6.89371 36.0437 6.89371H34.1035C33.4662 6.89371 33.0899 7.24109 33.0899 7.8783V13.9309C33.0899 16.5377 31.8734 17.6088 30.1647 17.6088C28.485 17.6088 27.6741 16.5373 27.6741 14.5678V7.87793C27.6741 7.24071 27.2978 6.89334 26.6606 6.89334H24.7204C24.0832 6.89334 23.7358 7.24071 23.7358 7.87793V15.0888C23.7358 18.7956 25.6471 21.0836 29.0354 21.0836V21.0843ZM43.1043 20.7949C43.7415 20.7949 44.1178 20.4471 44.1178 19.8103V13.7576C44.1178 11.1512 45.334 10.0794 46.9848 10.0794C48.6645 10.0794 49.5332 11.1509 49.5332 13.0915V19.8103C49.5332 20.4475 49.881 20.7949 50.5178 20.7949H52.4581C53.0953 20.7949 53.4716 20.4471 53.4716 19.8103V13.7576C53.4716 11.1512 54.6588 10.0794 56.3389 10.0794C58.0186 10.0794 58.8874 11.1509 58.8874 13.0915V19.8103C58.8874 20.4475 59.2351 20.7949 59.872 20.7949H61.8126C62.4498 20.7949 62.8261 20.4471 62.8261 19.8103V12.599C62.8261 8.86326 60.8859 6.60424 57.4686 6.60424C55.3833 6.60424 53.6457 7.38619 52.5742 8.89221C51.6761 7.41514 50.1705 6.60424 48.1141 6.60424C46.3475 6.60424 44.9284 7.18356 43.9148 8.28394V7.8783C43.9148 7.24109 43.5671 6.89371 42.9302 6.89371H41.1637C40.5265 6.89371 40.1791 7.24109 40.1791 7.8783V19.8099C40.1791 20.4471 40.5265 20.7945 41.1637 20.7945H43.1039L43.1043 20.7949ZM72.0589 21.0843C74.086 21.0843 75.563 20.4471 76.5476 19.3467V19.8103C76.5476 20.4475 76.8954 20.7949 77.5612 20.7949H79.2988C79.936 20.7949 80.2837 20.4471 80.2837 19.8103V7.87867C80.2837 7.24146 79.9363 6.89408 79.2988 6.89408H77.5612C76.9239 6.89408 76.5476 7.24146 76.5476 7.87867V8.3422C75.563 7.24145 74.086 6.60461 72.0589 6.60461C68.0912 6.60461 65.1375 9.76138 65.1375 13.8445C65.1375 17.9279 68.0916 21.0847 72.0589 21.0847V21.0843ZM72.754 17.5802C70.6108 17.5802 69.1341 16.0163 69.1341 13.8441C69.1341 11.6723 70.6111 10.0794 72.754 10.0794C75.1288 10.0794 76.4029 11.6723 76.4029 13.8441C76.4029 16.0163 75.1288 17.5802 72.754 17.5802ZM90.2272 21.0843C92.9783 21.0843 95.3672 19.7895 96.6272 17.7828C96.9308 17.2992 96.6847 16.8558 96.1058 16.5956L94.3682 15.8136C93.9076 15.6066 93.5766 15.748 93.2389 16.161C92.5345 17.022 91.4723 17.5802 90.2268 17.5802C88.0546 17.5802 86.5779 15.9873 86.5779 13.8441C86.5779 11.7012 88.055 10.0794 90.1982 10.0794C91.4723 10.0794 92.5333 10.638 93.2099 11.5276C93.5465 11.9703 93.8972 12.062 94.3682 11.8463L96.0768 11.0644C96.6892 10.7842 96.9293 10.3025 96.5404 9.73206C95.25 7.84082 92.9201 6.60424 90.1982 6.60424C85.8543 6.60424 82.5817 9.76101 82.5817 13.8441C82.5817 17.9276 85.8543 21.0843 90.2272 21.0843ZM101.79 20.7949C102.427 20.7949 102.803 20.4471 102.803 19.8103V1.79709C102.803 1.15987 102.427 0.8125 101.79 0.8125H99.8493C99.2121 0.8125 98.8647 1.15987 98.8647 1.79709V19.8103C98.8647 20.4475 99.2121 20.7949 99.8493 20.7949H101.79ZM112.022 21.0843C114.05 21.0843 115.527 20.4471 116.511 19.3467V19.8103C116.511 20.4471 116.859 20.7949 117.525 20.7949H119.262C119.9 20.7949 120.247 20.4471 120.247 19.8103V7.87867C120.247 7.24146 119.9 6.89408 119.262 6.89408H117.525C116.888 6.89408 116.511 7.24183 116.511 7.87867V8.3422C115.527 7.24145 114.05 6.60461 112.022 6.60461C108.055 6.60461 105.101 9.76138 105.101 13.8445C105.101 17.9279 108.055 21.0847 112.022 21.0847V21.0843ZM112.718 17.5802C110.574 17.5802 109.098 16.0163 109.098 13.8441C109.098 11.6723 110.574 10.0794 112.718 10.0794C115.092 10.0794 116.366 11.6723 116.366 13.8441C116.366 16.0163 115.092 17.5802 112.718 17.5802ZM128.437 21.0843C131.971 21.0843 134.142 19.173 134.142 16.4505C134.142 14.0757 132.637 12.8276 129.914 12.2512L128.408 11.9324C127.164 11.669 126.613 11.3824 126.613 10.7742C126.613 10.1948 127.134 9.76064 128.177 9.76064C129.335 9.76064 130.434 10.026 131.391 10.5136C131.968 10.8076 132.451 10.6962 132.753 10.108L133.274 9.09447C133.558 8.5415 133.469 8.00894 132.927 7.73356C131.645 7.08224 129.973 6.60387 128.235 6.60387C125.108 6.60387 122.935 8.42831 122.935 11.0347C122.935 13.3227 124.596 14.6105 127.077 15.1761L128.727 15.5524C130.057 15.8552 130.436 16.1317 130.436 16.711C130.436 17.4351 129.799 17.8693 128.554 17.8693C127.28 17.8693 126.061 17.4974 125.021 16.8847C124.439 16.5418 124.01 16.6264 123.66 17.1452L122.936 18.2167C122.589 18.7303 122.615 19.2346 123.167 19.5779C124.526 20.4219 126.498 21.084 128.438 21.084L128.437 21.0843ZM141.203 21.0843C144.736 21.0843 146.908 19.173 146.908 16.4505C146.908 14.0757 145.402 12.8276 142.68 12.2512L141.174 11.9324C139.929 11.669 139.378 11.3824 139.378 10.7742C139.378 10.1948 139.9 9.76064 140.942 9.76064C142.101 9.76064 143.199 10.026 144.157 10.5136C144.734 10.8076 145.216 10.6962 145.518 10.108L146.04 9.09447C146.324 8.5415 146.235 8.00894 145.692 7.73356C144.41 7.08224 142.738 6.60387 141 6.60387C137.873 6.60387 135.701 8.42831 135.701 11.0347C135.701 13.3227 137.361 14.6105 139.842 15.1761L141.493 15.5524C142.822 15.8552 143.202 16.1317 143.202 16.711C143.202 17.4351 142.564 17.8693 141.319 17.8693C140.045 17.8693 138.826 17.4974 137.786 16.8847C137.204 16.5418 136.776 16.6264 136.425 17.1452L135.701 18.2167C135.354 18.7303 135.38 19.2346 135.932 19.5779C137.291 20.4219 139.263 21.084 141.203 21.084L141.203 21.0843Z" fill="#F99053"/>
</svg>
